<svg width="12" height="12" viewBox="0 0 12 12" fill="none" xmlns="http://www.w3.org/2000/svg">
<path d="M7.21505 9.41003C7.31005 9.41003 7.40504 9.37503 7.48004 9.30003L10.515 6.26504C10.66 6.12004 10.66 5.88004 10.515 5.73504L7.48004 2.70006C7.33504 2.55506 7.09504 2.55506 6.95005 2.70006C6.80505 2.84506 6.80505 3.08506 6.95005 3.23006L9.72003 6.00004L6.95005 8.77003C6.80505 8.91503 6.80505 9.15503 6.95005 9.30003C7.02005 9.37503 7.12005 9.41003 7.21505 9.41003Z" fill="black"/>
<path d="M1.75008 6.375L10.165 6.375C10.37 6.375 10.54 6.205 10.54 6C10.54 5.795 10.37 5.625 10.165 5.625L1.75008 5.625C1.54508 5.625 1.37508 5.795 1.37508 6C1.37508 6.205 1.54508 6.375 1.75008 6.375Z" fill="black"/>
</svg>
