<svg width="22" height="22" viewBox="0 0 22 22" fill="none" xmlns="http://www.w3.org/2000/svg">
<path d="M13.6125 3.62082V7.10415H12.2375V3.62082C12.2375 3.37332 12.0175 3.25415 11.8708 3.25415C11.825 3.25415 11.7791 3.26332 11.7333 3.28165L4.46413 6.02248C3.97829 6.20582 3.66663 6.66415 3.66663 7.18665V7.80082C2.83246 8.42415 2.29163 9.42332 2.29163 10.5508V7.18665C2.29163 6.09582 2.96079 5.12415 3.97829 4.73915L11.2566 1.98915C11.4583 1.91582 11.6691 1.87915 11.8708 1.87915C12.7875 1.87915 13.6125 2.62165 13.6125 3.62082Z" fill="black"/>
<path d="M19.7083 13.2916V14.2083C19.7083 14.4558 19.5158 14.6574 19.2591 14.6666H17.9208C17.435 14.6666 16.995 14.3091 16.9583 13.8324C16.9308 13.5483 17.0408 13.2824 17.2241 13.0991C17.3891 12.9249 17.6183 12.8333 17.8658 12.8333H19.25C19.5158 12.8424 19.7083 13.0441 19.7083 13.2916Z" fill="black"/>
<path d="M17.8566 11.8709H18.7916C19.2958 11.8709 19.7083 11.4584 19.7083 10.9542V10.5509C19.7083 8.65341 18.1591 7.10425 16.2616 7.10425H5.73829C4.95913 7.10425 4.24413 7.36091 3.66663 7.80091C2.83246 8.42425 2.29163 9.42341 2.29163 10.5509V16.7201C2.29163 18.6176 3.84079 20.1667 5.73829 20.1667H16.2616C18.1591 20.1667 19.7083 18.6176 19.7083 16.7201V16.5459C19.7083 16.0417 19.2958 15.6292 18.7916 15.6292H17.9941C17.1141 15.6292 16.2708 15.0884 16.0416 14.2359C15.8491 13.5392 16.0783 12.8701 16.5366 12.4209C16.8758 12.0726 17.3433 11.8709 17.8566 11.8709ZM12.8333 11.6876H6.41663C6.04079 11.6876 5.72913 11.3759 5.72913 11.0001C5.72913 10.6242 6.04079 10.3126 6.41663 10.3126H12.8333C13.2091 10.3126 13.5208 10.6242 13.5208 11.0001C13.5208 11.3759 13.2091 11.6876 12.8333 11.6876Z" fill="black"/>
</svg>
