<svg width="11" height="11" viewBox="0 0 11 11" fill="none" xmlns="http://www.w3.org/2000/svg">
<path fill-rule="evenodd" clip-rule="evenodd" d="M7.52507 2.9655H7.61895C8.85278 2.9655 9.85415 3.99675 9.85415 5.26175V7.79175C9.85415 9.05675 8.85278 10.0834 7.61895 10.0834H3.38101C2.14718 10.0834 1.14581 9.05675 1.14581 7.79175V5.26175C1.14581 3.99675 2.14718 2.9655 3.38101 2.9655H3.47489C3.48383 2.4155 3.69394 1.90216 4.07392 1.51716C4.45838 1.12758 4.95012 0.930498 5.50445 0.916748C6.61311 0.916748 7.51166 1.83341 7.52507 2.9655ZM4.54331 2.00758C4.29297 2.26425 4.15439 2.60341 4.14545 2.9655H6.85451C6.8411 2.21383 6.24207 1.60425 5.50445 1.60425C5.16023 1.60425 4.8026 1.74633 4.54331 2.00758ZM7.19873 4.73008C7.38649 4.73008 7.53401 4.57425 7.53401 4.38633V3.85466C7.53401 3.66675 7.38649 3.51091 7.19873 3.51091C7.01544 3.51091 6.86345 3.66675 6.86345 3.85466V4.38633C6.86345 4.57425 7.01544 4.73008 7.19873 4.73008ZM4.09628 4.38633C4.09628 4.57425 3.94875 4.73008 3.761 4.73008C3.57771 4.73008 3.42572 4.57425 3.42572 4.38633V3.85466C3.42572 3.66675 3.57771 3.51091 3.761 3.51091C3.94875 3.51091 4.09628 3.66675 4.09628 3.85466V4.38633Z" fill="black"/>
</svg>
