<svg width="14" height="14" viewBox="0 0 14 14" fill="none" xmlns="http://www.w3.org/2000/svg">
<path fill-rule="evenodd" clip-rule="evenodd" d="M1.16675 6.99959C1.16675 3.78018 3.78008 1.16626 7.00008 1.16626C10.2259 1.16626 12.8334 3.78018 12.8334 6.99959C12.8334 10.2202 10.2259 12.8329 7.00008 12.8329C3.78008 12.8329 1.16675 10.2202 1.16675 6.99959ZM6.48675 4.78876C6.48675 4.50934 6.72008 4.27543 7.00008 4.27543C7.28008 4.27543 7.50758 4.50934 7.50758 4.78876V7.36709C7.50758 7.64768 7.28008 7.87459 7.00008 7.87459C6.72008 7.87459 6.48675 7.64768 6.48675 7.36709V4.78876ZM7.00591 9.73018C6.72008 9.73018 6.49258 9.49684 6.49258 9.21684C6.49258 8.93684 6.72008 8.70934 7.00008 8.70934C7.28591 8.70934 7.51341 8.93684 7.51341 9.21684C7.51341 9.49684 7.28591 9.73018 7.00591 9.73018Z" fill="#6F6F6F"/>
</svg>
